<svg width="460" height="160" viewBox="0 0 460 160" fill="none" xmlns="http://www.w3.org/2000/svg">
<path d="M157.958 98V92H167.058C169.658 92 171.858 91.4833 173.658 90.45C175.491 89.3833 176.874 87.9333 177.808 86.1C178.774 84.2667 179.258 82.1667 179.258 79.8C179.258 77.4667 178.791 75.4167 177.858 73.65C176.924 71.8833 175.541 70.5 173.708 69.5C171.908 68.5 169.691 68 167.058 68H158.108V62H167.058C171.091 62 174.608 62.7333 177.608 64.2C180.608 65.6333 182.924 67.7 184.558 70.4C186.224 73.0667 187.058 76.2333 187.058 79.9C187.058 83.5667 186.224 86.7667 184.558 89.5C182.891 92.2 180.558 94.3 177.558 95.8C174.591 97.2667 171.108 98 167.108 98H157.958ZM153.258 98V62H160.958V98H153.258ZM203.453 98.5C200.62 98.5 198.153 97.95 196.053 96.85C193.953 95.7167 192.32 94.15 191.153 92.15C190.02 90.15 189.453 87.85 189.453 85.25C189.453 82.6167 190.02 80.3167 191.153 78.35C192.32 76.35 193.936 74.8 196.003 73.7C198.07 72.5667 200.47 72 203.203 72C205.836 72 208.12 72.5333 210.053 73.6C211.986 74.6667 213.486 76.15 214.553 78.05C215.62 79.95 216.153 82.1833 216.153 84.75C216.153 85.2833 216.136 85.7833 216.103 86.25C216.07 86.6833 216.02 87.1 215.953 87.5H193.853V82.55H209.903L208.603 83.45C208.603 81.3833 208.103 79.8667 207.103 78.9C206.136 77.9 204.803 77.4 203.103 77.4C201.136 77.4 199.603 78.0667 198.503 79.4C197.436 80.7333 196.903 82.7333 196.903 85.4C196.903 88 197.436 89.9333 198.503 91.2C199.603 92.4667 201.236 93.1 203.403 93.1C204.603 93.1 205.636 92.9 206.503 92.5C207.37 92.1 208.02 91.45 208.453 90.55H215.503C214.67 93.0167 213.236 94.9667 211.203 96.4C209.203 97.8 206.62 98.5 203.453 98.5ZM230.708 98.5C226.975 98.5 224.008 97.75 221.808 96.25C219.608 94.75 218.408 92.6833 218.208 90.05H224.908C225.075 91.1833 225.642 92.05 226.608 92.65C227.608 93.2167 228.975 93.5 230.708 93.5C232.275 93.5 233.408 93.2833 234.108 92.85C234.842 92.3833 235.208 91.7333 235.208 90.9C235.208 90.2667 234.992 89.7833 234.558 89.45C234.158 89.0833 233.408 88.7833 232.308 88.55L228.208 87.7C225.175 87.0667 222.942 86.1167 221.508 84.85C220.075 83.55 219.358 81.8833 219.358 79.85C219.358 77.3833 220.308 75.4667 222.208 74.1C224.108 72.7 226.758 72 230.158 72C233.525 72 236.208 72.6833 238.208 74.05C240.208 75.3833 241.308 77.25 241.508 79.65H234.808C234.675 78.7833 234.208 78.1333 233.408 77.7C232.608 77.2333 231.475 77 230.008 77C228.675 77 227.675 77.2 227.008 77.6C226.375 77.9667 226.058 78.5 226.058 79.2C226.058 79.8 226.325 80.2833 226.858 80.65C227.392 80.9833 228.275 81.2833 229.508 81.55L234.108 82.5C236.675 83.0333 238.608 84.0333 239.908 85.5C241.242 86.9333 241.908 88.6333 241.908 90.6C241.908 93.1 240.925 95.05 238.958 96.45C237.025 97.8167 234.275 98.5 230.708 98.5ZM257.984 98.5C255.317 98.5 252.967 97.9333 250.934 96.8C248.9 95.6667 247.3 94.1 246.134 92.1C245 90.1 244.434 87.8167 244.434 85.25C244.434 82.6833 245 80.4 246.134 78.4C247.3 76.4 248.9 74.8333 250.934 73.7C252.967 72.5667 255.317 72 257.984 72C260.217 72 262.217 72.4167 263.984 73.25C265.784 74.05 267.25 75.1667 268.384 76.6C269.55 78.0333 270.3 79.7167 270.634 81.65H263.384C263.017 80.4167 262.35 79.4833 261.384 78.85C260.45 78.2167 259.35 77.9 258.084 77.9C256.884 77.9 255.834 78.2 254.934 78.8C254.067 79.4 253.4 80.25 252.934 81.35C252.467 82.45 252.234 83.75 252.234 85.25C252.234 86.75 252.467 88.05 252.934 89.15C253.4 90.25 254.067 91.1 254.934 91.7C255.834 92.3 256.884 92.6 258.084 92.6C259.35 92.6 260.45 92.2833 261.384 91.65C262.35 91.0167 263.017 90.0833 263.384 88.85H270.634C270.3 90.7833 269.55 92.4667 268.384 93.9C267.25 95.3333 265.784 96.4667 263.984 97.3C262.217 98.1 260.217 98.5 257.984 98.5ZM290.071 98C289.871 97.2667 289.721 96.4833 289.621 95.65C289.555 94.8167 289.521 93.85 289.521 92.75H289.321V80.7C289.321 79.6667 288.971 78.8667 288.271 78.3C287.605 77.7 286.605 77.4 285.271 77.4C284.005 77.4 282.988 77.6167 282.221 78.05C281.488 78.4833 281.005 79.1167 280.771 79.95H273.621C273.955 77.65 275.138 75.75 277.171 74.25C279.205 72.75 281.988 72 285.521 72C289.188 72 291.988 72.8167 293.921 74.45C295.855 76.0833 296.821 78.4333 296.821 81.5V92.75C296.821 93.5833 296.871 94.4333 296.971 95.3C297.105 96.1333 297.305 97.0333 297.571 98H290.071ZM281.171 98.5C278.638 98.5 276.621 97.8667 275.121 96.6C273.621 95.3 272.871 93.5833 272.871 91.45C272.871 89.0833 273.755 87.1833 275.521 85.75C277.321 84.2833 279.821 83.3333 283.021 82.9L290.471 81.85V86.2L284.271 87.15C282.938 87.35 281.955 87.7167 281.321 88.25C280.688 88.7833 280.371 89.5167 280.371 90.45C280.371 91.2833 280.671 91.9167 281.271 92.35C281.871 92.7833 282.671 93 283.671 93C285.238 93 286.571 92.5833 287.671 91.75C288.771 90.8833 289.321 89.8833 289.321 88.75L290.021 92.75C289.288 94.65 288.171 96.0833 286.671 97.05C285.171 98.0167 283.338 98.5 281.171 98.5ZM302.586 98V72.5H309.936V78.5H310.086V98H302.586ZM310.086 84.7L309.436 78.65C310.036 76.4833 311.019 74.8333 312.386 73.7C313.753 72.5667 315.453 72 317.486 72C318.119 72 318.586 72.0667 318.886 72.2V79.2C318.719 79.1333 318.486 79.1 318.186 79.1C317.886 79.0667 317.519 79.05 317.086 79.05C314.686 79.05 312.919 79.4833 311.786 80.35C310.653 81.1833 310.086 82.6333 310.086 84.7ZM333.867 108.75C330.334 108.75 327.451 108 325.217 106.5C323.017 105 321.717 102.967 321.317 100.4H328.417C328.684 101.033 329.251 101.517 330.117 101.85C331.017 102.183 332.151 102.35 333.517 102.35C335.784 102.35 337.434 101.917 338.467 101.05C339.501 100.183 340.017 98.8333 340.017 97V91.45L340.417 91.55C340.084 93.4167 339.117 94.9 337.517 96C335.917 97.0667 333.934 97.6 331.567 97.6C329.301 97.6 327.317 97.0833 325.617 96.05C323.951 94.9833 322.651 93.5 321.717 91.6C320.784 89.7 320.317 87.4667 320.317 84.9C320.317 82.3 320.801 80.0333 321.767 78.1C322.734 76.1667 324.084 74.6667 325.817 73.6C327.584 72.5333 329.634 72 331.967 72C334.367 72 336.317 72.5667 337.817 73.7C339.351 74.8333 340.251 76.3833 340.517 78.35L340.167 78.4V72.5H347.517V96.9C347.517 100.567 346.301 103.45 343.867 105.55C341.434 107.683 338.101 108.75 333.867 108.75ZM334.167 91.85C335.934 91.85 337.367 91.25 338.467 90.05C339.567 88.8167 340.117 87.0667 340.117 84.8C340.117 82.5333 339.551 80.8 338.417 79.6C337.317 78.3667 335.867 77.75 334.067 77.75C332.334 77.75 330.901 78.3667 329.767 79.6C328.667 80.8333 328.117 82.5833 328.117 84.85C328.117 87.1167 328.667 88.85 329.767 90.05C330.901 91.25 332.367 91.85 334.167 91.85ZM369.564 98C369.364 97.2667 369.214 96.4833 369.114 95.65C369.047 94.8167 369.014 93.85 369.014 92.75H368.814V80.7C368.814 79.6667 368.464 78.8667 367.764 78.3C367.097 77.7 366.097 77.4 364.764 77.4C363.497 77.4 362.48 77.6167 361.714 78.05C360.98 78.4833 360.497 79.1167 360.264 79.95H353.114C353.447 77.65 354.63 75.75 356.664 74.25C358.697 72.75 361.48 72 365.014 72C368.68 72 371.48 72.8167 373.414 74.45C375.347 76.0833 376.314 78.4333 376.314 81.5V92.75C376.314 93.5833 376.364 94.4333 376.464 95.3C376.597 96.1333 376.797 97.0333 377.064 98H369.564ZM360.664 98.5C358.13 98.5 356.114 97.8667 354.614 96.6C353.114 95.3 352.364 93.5833 352.364 91.45C352.364 89.0833 353.247 87.1833 355.014 85.75C356.814 84.2833 359.314 83.3333 362.514 82.9L369.964 81.85V86.2L363.764 87.15C362.43 87.35 361.447 87.7167 360.814 88.25C360.18 88.7833 359.864 89.5167 359.864 90.45C359.864 91.2833 360.164 91.9167 360.764 92.35C361.364 92.7833 362.164 93 363.164 93C364.73 93 366.064 92.5833 367.164 91.75C368.264 90.8833 368.814 89.8833 368.814 88.75L369.514 92.75C368.78 94.65 367.664 96.0833 366.164 97.05C364.664 98.0167 362.83 98.5 360.664 98.5ZM382.078 98V72.5H389.428V78.5H389.578V98H382.078ZM389.578 84.7L388.928 78.65C389.528 76.4833 390.511 74.8333 391.878 73.7C393.245 72.5667 394.945 72 396.978 72C397.611 72 398.078 72.0667 398.378 72.2V79.2C398.211 79.1333 397.978 79.1 397.678 79.1C397.378 79.0667 397.011 79.05 396.578 79.05C394.178 79.05 392.411 79.4833 391.278 80.35C390.145 81.1833 389.578 82.6333 389.578 84.7Z" fill="white"/>
<rect width="460" height="160" rx="80" fill="white" fill-opacity="0.15"/>
<rect x="2" y="2" width="456" height="156" rx="78" stroke="url(#paint0_linear_120_30)" stroke-opacity="0.75" stroke-width="4"/>
<path d="M70 72.75V86C70 98.7025 80.2975 109 93 109H105C117.703 109 128 98.7025 128 86V72.75" stroke="white" stroke-width="6" stroke-linecap="round"/>
<path d="M99 51L99 87.25M99 87.25L97.9863 85.1715C95.3065 79.6767 91.1088 75.0646 85.8898 71.8807L84.5 71.0329M99 87.25L100.014 85.1715C102.693 79.6767 106.891 75.0646 112.11 71.8807L113.5 71.0329" stroke="white" stroke-width="6" stroke-linecap="round" stroke-linejoin="round"/>
<defs>
<linearGradient id="paint0_linear_120_30" x1="21.6901" y1="3.77912e-06" x2="105.156" y2="264.952" gradientUnits="userSpaceOnUse">
<stop stop-color="white"/>
<stop offset="0.504808" stop-color="white" stop-opacity="0"/>
<stop offset="1" stop-color="white"/>
</linearGradient>
</defs>
</svg>
