<svg width="135" height="132" viewBox="0 0 135 132" fill="none" xmlns="http://www.w3.org/2000/svg">
<path d="M110.863 58.0531C107.39 63.8341 96.751 75.5146 81.9784 75.9885" stroke="white" stroke-width="6" stroke-linecap="round"/>
<path d="M40.0196 60.6531C38.3902 59.8746 37.7004 57.9226 38.4788 56.2932V56.2932C39.6974 53.7427 37.1971 50.6298 34.3915 50.2851C32.5099 50.0538 30.6331 49.519 28.8281 48.6566C19.8581 44.3711 16.0606 33.6254 20.3461 24.6554C24.6317 15.6855 35.3773 11.888 44.3473 16.1735C46.1523 17.0358 47.7476 18.1599 49.1098 19.4784C51.1408 21.4443 55.1335 21.4336 56.352 18.883V18.883C57.1305 17.2536 59.0825 16.5638 60.7119 17.3422L61.3708 17.6571C63.3641 18.6094 64.208 20.9973 63.2557 22.9906L46.0121 59.083C45.0598 61.0763 42.6719 61.9202 40.6785 60.9679L40.0196 60.6531Z" fill="#3E9230"/>
<circle cx="84" cy="109" r="7" fill="#7BB471" fill-opacity="0.21"/>
<circle cx="87" cy="7" r="7" fill="#7BB471" fill-opacity="0.21"/>
<path d="M54.4619 2C59.9042 2.0001 64.3164 6.41217 64.3164 11.8545C64.3165 17.2967 68.7278 21.7088 74.1699 21.709H99.6582C119.177 21.7091 135 37.532 135 57.0508V59.8545C135 80.9216 117.922 97.9999 96.8545 98H72.0056C68.4146 98 66 102.409 66 106V106C66 113.732 59.732 120 52 120C44.268 120 38 113.732 38 106V106C38 102.409 35.5854 98 31.9944 98H21.9336C9.82005 97.9999 9.48335e-05 88.18 0 76.0664V72.5996C0 62.4006 8.26785 54.1329 18.4668 54.1328H31.8477C34.6566 54.1328 36.9336 51.8549 36.9336 49.0459C36.9333 46.2371 34.6565 43.96 31.8477 43.96H22.6064C14.6935 43.96 8.27851 37.5457 8.27832 29.6328V22.9805C8.27832 11.3935 17.6718 2 29.2588 2H54.4619Z" fill="#7BB471" fill-opacity="0.21"/>
<circle cx="48" cy="127" r="5" fill="#7BB471" fill-opacity="0.21"/>
</svg>
