<svg width="34" height="37" viewBox="0 0 34 37" fill="none" xmlns="http://www.w3.org/2000/svg">
<path d="M17 4C22.5228 4 27 8.47715 27 14V19.4588C27 20.9428 28.2509 22.1417 29.1949 23.2868C29.6979 23.8969 30 24.6787 30 25.5312C30 26.3424 29.3424 27 28.5312 27H5.46875C4.65758 27 4 26.3424 4 25.5312C4 24.6787 4.30211 23.8969 4.80511 23.2868C5.74913 22.1417 7 20.9428 7 19.4588V14C7 8.47715 11.4772 4 17 4Z" fill="white"/>
<path d="M13 30V30C13 31.6569 14.3431 33 16 33H18C19.6569 33 21 31.6569 21 30V30" stroke="white" stroke-width="3" stroke-linecap="round" stroke-linejoin="round"/>
</svg>
