<svg width="39" height="35" viewBox="0 0 39 35" fill="none" xmlns="http://www.w3.org/2000/svg">
<path d="M10.1234 25.7875L5.52161 27.0205C3.484 27.5665 1.80345 25.3763 2.85819 23.5495C3.06601 23.1895 3.17542 22.7812 3.17542 22.3655V14.5C3.17542 7.04416 9.21957 1 16.6754 1H17.8556C24.6597 1 30.1754 6.51575 30.1754 13.3198C30.1754 20.1238 24.6597 25.6395 17.8557 25.6395H11.2469C10.8676 25.6395 10.4898 25.6893 10.1234 25.7875Z" fill="white" stroke="white" stroke-width="2" stroke-linecap="round" stroke-linejoin="round"/>
<path opacity="0.6" d="M24.1754 10C30.3963 10 35.4394 15.0431 35.4394 21.264V28.6519C35.4394 29.0111 35.5329 29.3641 35.7108 29.6761C36.6221 31.275 35.1483 33.1784 33.3722 32.6964L29.4599 31.6346C29.1395 31.5476 28.809 31.5036 28.477 31.5036H23.679C17.3257 31.5036 12.1754 26.3533 12.1754 20" stroke="white" stroke-width="3" stroke-linecap="round" stroke-linejoin="round"/>
</svg>
