<svg width="33" height="27" viewBox="0 0 33 27" fill="none" xmlns="http://www.w3.org/2000/svg">
<rect x="6" width="12" height="12" rx="6" fill="white"/>
<path d="M24 24.4286C24 25.8487 22.8487 27 21.4286 27L2.57143 27C1.15127 27 -1.8067e-06 25.8487 -1.68255e-06 24.4286V24.4286C-1.22731e-06 19.2213 4.22131 15 9.42857 15L14.5714 15C19.7787 15 24 19.2213 24 24.4286V24.4286Z" fill="white"/>
<path d="M21 12L25 8M21 12L25 16M21 12H21.5C25.7297 12 27.8446 12 29.2472 13.198C29.4464 13.3681 29.6319 13.5536 29.802 13.7528C31 15.1554 31 17.2703 31 21.5" stroke="white" stroke-width="3" stroke-linecap="round" stroke-linejoin="round"/>
</svg>
