<svg width="26" height="31" viewBox="0 0 26 31" fill="none" xmlns="http://www.w3.org/2000/svg">
<path d="M13 0C18.5228 0 23 4.47715 23 10V15.4588C23 16.9428 24.2509 18.1417 25.1949 19.2868C25.6979 19.8969 26 20.6787 26 21.5312C26 22.3424 25.3424 23 24.5312 23H1.46875C0.657581 23 0 22.3424 0 21.5312C0 20.6787 0.302113 19.8969 0.805113 19.2868C1.74913 18.1417 3 16.9428 3 15.4588V10C3 4.47715 7.47715 0 13 0Z" fill="white"/>
<path d="M9 26C9 27.6569 10.3431 29 12 29H14C15.6569 29 17 27.6569 17 26" stroke="white" stroke-width="3" stroke-linecap="round" stroke-linejoin="round"/>
</svg>
