<svg width="32" height="32" viewBox="0 0 32 32" fill="none" xmlns="http://www.w3.org/2000/svg">
<g clip-path="url(#clip0_67_65)">
<path d="M8 1H24C27.866 1 31 4.13401 31 8V24C31 27.866 27.866 31 24 31H8C4.13401 31 1 27.866 1 24V8C1 4.13401 4.13401 1 8 1Z" stroke="white" stroke-width="2"/>
<path d="M12.7692 11.7308H7C6.44772 11.7308 6 12.1785 6 12.7308V20.5769C6 21.1292 6.44772 21.5769 7 21.5769H11.7692C12.3215 21.5769 12.7692 21.1292 12.7692 20.5769V17.6538C12.7692 17.1016 12.3215 16.6538 11.7692 16.6538H9.07692M16.2692 22.8077V10.5M20.0769 22.8077V16.0385M20.0769 16.0385L20.0345 13.5339C20.0155 12.4162 20.9164 11.5 22.0342 11.5H26.7692M20.0769 16.0385H26.8462" stroke="white" stroke-width="2"/>
</g>
<defs>
<clipPath id="clip0_67_65">
<rect width="32" height="32" fill="white"/>
</clipPath>
</defs>
</svg>
