<svg width="56" height="71" viewBox="0 0 56 71" fill="none" xmlns="http://www.w3.org/2000/svg">
<path d="M32.3638 37.0345C32.7491 29.249 37.2184 11.5424 52.0133 3.00049" stroke="white" stroke-width="6" stroke-linecap="round"/>
<path d="M55.4814 31.5851C55.4814 33.6725 53.7893 35.3646 51.7019 35.3646C48.4345 35.3646 46.4337 39.5235 47.4722 42.6215C48.1685 44.699 48.5459 46.9227 48.5459 49.2347C48.5459 60.7252 39.2307 70.0404 27.7402 70.0404C16.2499 70.0403 6.93558 60.7251 6.93555 49.2347C6.93555 46.9226 7.3128 44.6987 8.00907 42.6211C9.04723 39.5233 7.04648 35.3646 3.77931 35.3646C1.69206 35.3646 0 33.6726 0 31.5853V30.7411C0 28.1876 2.07003 26.1176 4.62354 26.1176H50.8579C53.4114 26.1176 55.4814 28.1876 55.4814 30.7411V31.5851Z" fill="#C43335"/>
</svg>
